<?xml version="1.0" standalone="no"?>
<!DOCTYPE svg PUBLIC "-//W3C//DTD SVG 20010904//EN"
 "http://www.w3.org/TR/2001/REC-SVG-20010904/DTD/svg10.dtd">
<svg version="1.0" xmlns="http://www.w3.org/2000/svg"
 width="50.000000pt" height="50.000000pt" viewBox="0 0 50.000000 50.000000"
 preserveAspectRatio="xMidYMid meet">

<g transform="translate(0.000000,50.000000) scale(0.100000,-0.100000)"
fill="#000000" stroke="none">
<path d="M197 324 c-56 -58 -105 -113 -109 -122 -4 -10 -7 -38 -7 -63 -1 -60
13 -72 76 -64 45 7 56 15 156 115 98 98 107 111 107 145 0 28 -7 44 -31 66
-56 52 -77 43 -192 -77z m163 66 c33 -18 44 -48 26 -75 -18 -27 -37 -25 -73 8
-22 20 -30 56 -16 70 10 10 42 8 63 -3z m-91 -206 c-58 -58 -80 -74 -112 -79
-21 -4 -43 -3 -47 1 -5 5 -5 28 -1 51 6 33 23 58 76 115 l69 74 44 -44 44 -45
-73 -73z"/>
<path d="M60 40 c0 -6 70 -10 190 -10 120 0 190 4 190 10 0 6 -70 10 -190 10
-120 0 -190 -4 -190 -10z"/>
</g>
</svg>
