<?xml version="1.0" encoding="UTF-8" standalone="no" ?>
<!DOCTYPE svg PUBLIC "-//W3C//DTD SVG 1.1//EN" "http://www.w3.org/Graphics/SVG/1.1/DTD/svg11.dtd">
<svg xmlns="http://www.w3.org/2000/svg" xmlns:xlink="http://www.w3.org/1999/xlink" version="1.1" width="1080" height="1080" viewBox="0 0 1080 1080" xml:space="preserve">
<desc>Created with Fabric.js 5.2.4</desc>
<defs>
</defs>
<g transform="matrix(1 0 0 1 540 540)" id="e8242400-5024-4c1c-bae1-24f836d137f6"  >
<rect style="stroke: none; stroke-width: 1; stroke-dasharray: none; stroke-linecap: butt; stroke-dashoffset: 0; stroke-linejoin: miter; stroke-miterlimit: 4; fill: rgb(255,255,255); fill-rule: nonzero; opacity: 1; visibility: hidden;" vector-effect="non-scaling-stroke"  x="-540" y="-540" rx="0" ry="0" width="1080" height="1080" />
</g>
<g transform="matrix(1 0 0 1 540 540)" id="0aea7ebb-58c7-47eb-8dda-dd1cb2bc5f67"  >
</g>
<g transform="matrix(1 0 0 1 540 540)"  >
<g style="" vector-effect="non-scaling-stroke"   >
		<g transform="matrix(1 0 0 1 0 0)"  >
<rect style="stroke: none; stroke-width: 1; stroke-dasharray: none; stroke-linecap: butt; stroke-dashoffset: 0; stroke-linejoin: miter; stroke-miterlimit: 4; fill: rgb(255,255,255); fill-rule: nonzero; opacity: 1; visibility: hidden;" vector-effect="non-scaling-stroke"  x="-540" y="-540" rx="0" ry="0" width="1080" height="1080" />
</g>
		<g transform="matrix(-21.33 0 0 -21.33 120.24 0)"  >
<path style="stroke: none; stroke-width: 1; stroke-dasharray: none; stroke-linecap: butt; stroke-dashoffset: 0; stroke-linejoin: miter; stroke-miterlimit: 4; fill: rgb(0,0,0); fill-rule: nonzero; opacity: 1;" vector-effect="non-scaling-stroke"  transform=" translate(-6.24, -12)" d="M 11.476 15 C 10.923715250169208 15 10.476 15.447715250169207 10.476 16 L 10.476 19 C 10.476 20.65685424949238 9.13285424949238 22 7.476000000000001 22 L 5 22 C 3.3431457505076194 22 2 20.65685424949238 2 19 L 2 5 C 2 3.3431457505076194 3.3431457505076194 2 5 2 L 7.476 2 C 9.132854249492379 2 10.475999999999999 3.3431457505076194 10.475999999999999 4.999999999999999 L 10.475999999999999 8 C 10.475999999999999 8.552284749830793 10.923715250169206 9 11.475999999999999 9 C 12.028284749830792 9 12.475999999999999 8.552284749830793 12.475999999999999 8 L 12.475999999999999 5 C 12.47269388366542 2.239946848990443 10.236053151009553 0.0033061163345795563 7.475999999999997 0 L 5 0 C 2.239946848990443 0.0033061163345802437 0.0033061163345795563 2.239946848990444 0 5.000000000000001 L 0 19 C 0.0033061163345800746 21.760053151009558 2.239946848990444 23.996693883665422 5.000000000000001 24 L 7.476 24 C 10.236053151009557 23.99669388366542 12.472693883665421 21.760053151009558 12.475999999999999 19 L 12.475999999999999 16 C 12.475999999999999 15.447715250169207 12.028284749830794 15.000000000000002 11.476 15 Z" stroke-linecap="round" />
</g>
		<g transform="matrix(-21.33 0 0 -21.33 -53.38 0)"  >
<path style="stroke: none; stroke-width: 1; stroke-dasharray: none; stroke-linecap: butt; stroke-dashoffset: 0; stroke-linejoin: miter; stroke-miterlimit: 4; fill: rgb(0,0,0); fill-rule: nonzero; opacity: 1;" vector-effect="non-scaling-stroke"  transform=" translate(-14.37, -12)" d="M 22.867 9.879 L 18.281 5.293 C 18.029925529738467 5.033043415546901 17.658122107857814 4.928787402801667 17.308492676106717 5.020302843417088 C 16.95886324435562 5.111818284032509 16.685818284032507 5.3848632443556195 16.594302843417086 5.734492676106717 C 16.502787402801665 6.084122107857813 16.607043415546897 6.455925529738467 16.866999999999997 6.706999999999999 L 21.13 10.97 L 6 11 C 5.447715250169207 11 5 11.447715250169207 5 12 C 5 12.552284749830793 5.447715250169207 13 6 13 L 6 13 L 21.188000000000002 12.97 L 16.865000000000002 17.293 C 16.60504341554692 17.544074470261535 16.5007874028017 17.91587789214218 16.592302843417123 18.265507323893267 C 16.683818284032544 18.615136755644354 16.95686324435565 18.88818171596746 17.306492676106735 18.97969715658288 C 17.656122107857822 19.071212597198304 18.027925529738468 18.966956584453083 18.279000000000003 18.707 L 22.865000000000002 14.121 C 24.036698332613017 12.950052688666576 24.037593665495397 11.051051645137342 22.867 9.879 Z" stroke-linecap="round" />
</g>
</g>
</g>
</svg>